<svg xmlns="http://www.w3.org/2000/svg" width="178" height="50" fill="none" viewBox="0 0 178 50"><path fill="#fff" d="M171.407 50H6.593C2.968 50 0 47.186 0 43.75V6.25C0 2.814 2.968 0 6.593 0h164.814C175.032 0 178 2.814 178 6.25v37.5c0 3.436-2.968 6.25-6.593 6.25"/><path fill="#A6A6A6" d="M171.407 1.002c3.053 0 5.537 2.354 5.537 5.248v37.5c0 2.894-2.484 5.248-5.537 5.248H6.593c-3.053 0-5.537-2.354-5.537-5.248V6.25c0-2.894 2.484-5.248 5.537-5.248zm0-1.002H6.593C2.968 0 0 2.814 0 6.25v37.5C0 47.186 2.968 50 6.593 50h164.814c3.625 0 6.593-2.814 6.593-6.25V6.25c0-3.436-2.968-6.25-6.593-6.25"/><path fill="url(#a)" d="M13.759 9.423c-.388.385-.612.983-.612 1.758v27.644c0 .775.224 1.374.612 1.758l.095.084 16.34-15.484v-.366L13.854 9.333z"/><path fill="url(#b)" d="m35.635 30.347-5.441-5.164v-.366l5.447-5.164.122.067 6.451 3.48c1.841.988 1.841 2.613 0 3.606l-6.45 3.474z"/><path fill="url(#c)" d="M35.763 30.28 30.194 25 13.76 40.583c.611.61 1.608.683 2.742.073z"/><path fill="url(#d)" d="M35.763 19.72 16.501 9.344c-1.134-.603-2.13-.53-2.742.08L30.194 25z"/><path fill="#000" stroke="#000" stroke-miterlimit="10" stroke-width="0.16" d="M62.52 12.805c0 1.043-.329 1.88-.978 2.503-.747.739-1.72 1.11-2.91 1.11q-1.712-.002-2.91-1.123c-.8-.756-1.198-1.684-1.198-2.795q0-1.666 1.198-2.79 1.199-1.127 2.91-1.129c.566 0 1.107.111 1.623.317.514.208.932.49 1.236.836l-.69.66c-.528-.593-1.248-.885-2.17-.885q-1.244-.001-2.162.83-.908.835-.908 2.16c0 .885.303 1.612.908 2.168.611.549 1.331.83 2.162.83.882 0 1.624-.281 2.209-.836q.577-.55.662-1.52h-2.87v-.904h3.83c.046.196.059.385.059.568Zm6.078-3.132H65v2.375h3.243v.903H65v2.375h3.598v.92H63.98V8.754h4.617zm4.288 6.574h-1.018V9.673H69.66v-.92h5.433v.92h-2.208v6.574Zm6.141 0V8.753h1.017v7.494zm5.525 0h-1.01V9.673h-2.216v-.92h5.44v.92h-2.214zm12.503-.964q-1.17 1.137-2.898 1.136c-1.159 0-2.124-.378-2.904-1.136q-1.166-1.135-1.165-2.783-.001-1.648 1.165-2.783c.78-.758 1.745-1.136 2.904-1.136 1.145 0 2.111.378 2.89 1.142.785.763 1.173 1.685 1.173 2.777q0 1.648-1.165 2.783Zm-5.049-.628c.587.56 1.3.842 2.151.842.844 0 1.564-.281 2.144-.842.585-.561.882-1.282.882-2.155s-.297-1.594-.882-2.155c-.58-.56-1.3-.842-2.144-.842q-1.273 0-2.15.842-.881.843-.883 2.155c0 .873.297 1.594.882 2.155Zm7.643 1.592V8.753h1.236l3.843 5.828h.045l-.045-1.44V8.753h1.017v7.494h-1.061l-4.025-6.116h-.045l.045 1.447v4.669z"/><path fill="#000" d="M89.837 27.19c-3.097 0-5.627 2.235-5.627 5.318 0 3.058 2.53 5.316 5.627 5.316 3.104 0 5.634-2.258 5.634-5.316 0-3.083-2.53-5.317-5.634-5.317m0 8.54c-1.699 0-3.16-1.33-3.16-3.222 0-1.917 1.461-3.224 3.16-3.224s3.168 1.307 3.168 3.224c0 1.892-1.468 3.222-3.168 3.222M77.56 27.19c-3.103 0-5.627 2.235-5.627 5.318 0 3.058 2.524 5.316 5.627 5.316s5.627-2.258 5.627-5.316c0-3.083-2.525-5.317-5.627-5.317m0 8.54c-1.7 0-3.168-1.33-3.168-3.222 0-1.917 1.467-3.224 3.168-3.224 1.7 0 3.161 1.307 3.161 3.224 0 1.892-1.462 3.222-3.16 3.222m-14.609-6.91v2.26h5.691c-.166 1.262-.611 2.19-1.294 2.837-.83.782-2.124 1.649-4.397 1.649-3.502 0-6.245-2.68-6.245-6s2.743-6 6.245-6c1.894 0 3.272.701 4.289 1.61l1.679-1.592c-1.422-1.287-3.314-2.276-5.968-2.276-4.803 0-8.839 3.705-8.839 8.258s4.036 8.258 8.839 8.258c2.596 0 4.546-.807 6.078-2.32 1.571-1.488 2.06-3.582 2.06-5.273 0-.525-.046-1.008-.128-1.41zm59.739 1.752c-.463-1.19-1.892-3.381-4.803-3.381-2.884 0-5.286 2.154-5.286 5.317 0 2.978 2.377 5.316 5.563 5.316 2.576 0 4.063-1.49 4.674-2.357l-1.912-1.208c-.638.885-1.506 1.47-2.762 1.47-1.248 0-2.143-.541-2.716-1.61l7.501-2.942zm-7.648 1.77c-.064-2.05 1.68-3.1 2.929-3.1.979 0 1.81.464 2.087 1.128zm-6.096 5.158h2.466V21.875h-2.466zm-4.038-9.125h-.083c-.553-.622-1.61-1.184-2.948-1.184-2.808 0-5.376 2.337-5.376 5.334 0 2.98 2.567 5.299 5.376 5.299 1.338 0 2.395-.568 2.948-1.208h.083v.762c0 2.033-1.146 3.125-2.993 3.125-1.507 0-2.441-1.031-2.827-1.898l-2.144.848c.618 1.41 2.255 3.144 4.971 3.144 2.891 0 5.33-1.613 5.33-5.536v-9.547h-2.337zm-2.82 7.355c-1.699 0-3.122-1.349-3.122-3.205 0-1.873 1.423-3.24 3.122-3.24 1.674 0 2.995 1.367 2.995 3.24 0 1.856-1.321 3.205-2.995 3.205m32.145-13.855h-5.897V37.5h2.459v-5.92h3.438c2.731 0 5.41-1.874 5.41-4.853s-2.685-4.852-5.41-4.852m.065 7.531h-3.503V24.05h3.503c1.836 0 2.884 1.445 2.884 2.678 0 1.209-1.048 2.68-2.884 2.68m15.201-2.245c-1.777 0-3.625.744-4.385 2.392l2.183.867c.469-.867 1.333-1.148 2.246-1.148 1.276 0 2.57.727 2.589 2.01v.163c-.445-.243-1.397-.604-2.569-.604-2.35 0-4.745 1.226-4.745 3.515 0 2.094 1.925 3.442 4.089 3.442 1.655 0 2.568-.707 3.141-1.53h.084v1.207h2.375v-5.994c0-2.77-2.182-4.32-5.008-4.32m-.297 8.563c-.804 0-1.925-.379-1.925-1.324 0-1.21 1.397-1.673 2.607-1.673 1.083 0 1.591.226 2.248.525-.193 1.447-1.506 2.471-2.93 2.471m13.958-8.22-2.827 6.773h-.084l-2.922-6.774h-2.652l4.391 9.466-2.505 5.267h2.569l6.766-14.733zM140.994 37.5h2.466V21.875h-2.466z"/><defs><linearGradient id="a" x1="28.7433" x2="7.79515" y1="39.1129" y2="17.0165" gradientUnits="userSpaceOnUse"><stop stop-color="#00A0FF"/><stop offset="0.0066" stop-color="#00A1FF"/><stop offset="0.2601" stop-color="#00BEFF"/><stop offset="0.5122" stop-color="#00D2FF"/><stop offset="0.7604" stop-color="#00DFFF"/><stop offset="1" stop-color="#00E3FF"/></linearGradient><linearGradient id="b" x1="44.6112" x2="12.7072" y1="24.9983" y2="24.9983" gradientUnits="userSpaceOnUse"><stop stop-color="#FFE000"/><stop offset="0.4087" stop-color="#FFBD00"/><stop offset="0.7754" stop-color="orange"/><stop offset="1" stop-color="#FF9C00"/></linearGradient><linearGradient id="c" x1="32.7349" x2="4.32744" y1="22.1299" y2="-7.83465" gradientUnits="userSpaceOnUse"><stop stop-color="#FF3A44"/><stop offset="1" stop-color="#C31162"/></linearGradient><linearGradient id="d" x1="9.62162" x2="22.3068" y1="49.7798" y2="36.3994" gradientUnits="userSpaceOnUse"><stop stop-color="#32A071"/><stop offset="0.0685" stop-color="#2DA771"/><stop offset="0.4762" stop-color="#15CF74"/><stop offset="0.8009" stop-color="#06E775"/><stop offset="1" stop-color="#00F076"/></linearGradient></defs></svg>