<svg xmlns="http://www.w3.org/2000/svg" width="180" height="52" fill="none" viewBox="0 0 180 52"><path fill="#000" d="M173.333 52H6.667C3.002 52 0 49.073 0 45.5v-39C0 2.927 3.002 0 6.667 0h166.666C176.998 0 180 2.927 180 6.5v39c0 3.573-3.002 6.5-6.667 6.5"/><path fill="#A6A6A6" d="M173.333 1.042c3.087 0 5.599 2.449 5.599 5.458v39c0 3.01-2.512 5.458-5.599 5.458H6.667c-3.087 0-5.599-2.448-5.599-5.458v-39c0-3.01 2.512-5.458 5.599-5.458zm0-1.042H6.667C3.002 0 0 2.927 0 6.5v39C0 49.073 3.002 52 6.667 52h166.666c3.665 0 6.667-2.927 6.667-6.5v-39c0-3.573-3.002-6.5-6.667-6.5"/><path fill="url(#a)" d="M13.913 9.8c-.391.4-.618 1.023-.618 1.829v28.75c0 .805.227 1.427.618 1.827l.097.088L30.533 26.19v-.38L14.01 9.706z"/><path fill="url(#b)" d="m36.035 31.562-5.502-5.371v-.38l5.508-5.371.124.07 6.523 3.619c1.862 1.027 1.862 2.717 0 3.75l-6.523 3.613z"/><path fill="url(#c)" d="m36.165 31.491-5.632-5.49-16.62 16.205c.618.634 1.627.71 2.773.077z"/><path fill="url(#d)" d="M36.165 20.51 16.686 9.717c-1.146-.628-2.155-.551-2.773.082L30.533 26z"/><path fill="#fff" stroke="#fff" stroke-miterlimit="10" stroke-width="0.16" d="M63.223 13.316c0 1.086-.333 1.955-.99 2.603q-1.134 1.156-2.943 1.156c-1.152 0-2.135-.393-2.942-1.168-.808-.787-1.211-1.752-1.211-2.908q0-1.731 1.211-2.9 1.212-1.174 2.942-1.175c.573 0 1.12.115 1.642.33.52.216.943.508 1.25.87l-.697.685c-.535-.616-1.263-.92-2.195-.92q-1.26-.001-2.187.863-.917.868-.918 2.247c0 .92.307 1.676.918 2.254.619.57 1.347.863 2.187.863.892 0 1.642-.292 2.233-.87q.584-.572.67-1.58H59.29v-.94h3.873c.047.204.06.4.06.59Zm6.146-3.256H65.73v2.47h3.28v.939h-3.28v2.47h3.638v.957H64.7V9.103h4.668zm4.336 6.836h-1.03V10.06h-2.232v-.957h5.495v.957h-2.233zm6.21 0V9.103h1.028v7.793zm5.587 0H84.48V10.06h-2.24v-.957h5.502v.957h-2.24zm12.643-1.002q-1.183 1.181-2.93 1.18-1.757.001-2.937-1.18T91.1 12.999q-.001-1.713 1.178-2.894 1.18-1.181 2.937-1.181c1.158 0 2.135.393 2.923 1.188.793.793 1.185 1.752 1.185 2.887q0 1.715-1.178 2.894Zm-5.105-.654c.593.584 1.315.876 2.175.876.853 0 1.581-.292 2.168-.876q.89-.876.892-2.24-.002-1.365-.892-2.242c-.587-.583-1.315-.875-2.168-.875-.86 0-1.582.292-2.175.876-.592.583-.892 1.332-.892 2.24q.002 1.365.892 2.241Zm7.729 1.656V9.103h1.25l3.886 6.06h.045l-.045-1.498V9.104h1.029v7.793h-1.074l-4.07-6.36h-.045l.045 1.505v4.855z"/><path fill="#fff" d="M90.846 28.278c-3.131 0-5.69 2.324-5.69 5.53 0 3.18 2.559 5.528 5.69 5.528 3.139 0 5.697-2.348 5.697-5.528 0-3.206-2.558-5.53-5.697-5.53m0 8.88c-1.718 0-3.196-1.382-3.196-3.35 0-1.994 1.478-3.352 3.196-3.352s3.204 1.358 3.204 3.352c0 1.968-1.485 3.35-3.204 3.35m-12.415-8.88c-3.138 0-5.69 2.324-5.69 5.53 0 3.18 2.552 5.528 5.69 5.528 3.137 0 5.69-2.348 5.69-5.528 0-3.206-2.553-5.53-5.69-5.53m0 8.88c-1.72 0-3.203-1.382-3.203-3.35 0-1.994 1.483-3.352 3.203-3.352s3.197 1.358 3.197 3.352c0 1.968-1.478 3.35-3.197 3.35m-14.773-7.185v2.35h5.755c-.168 1.313-.618 2.278-1.308 2.95-.84.813-2.149 1.715-4.447 1.715-3.542 0-6.315-2.787-6.315-6.24s2.773-6.24 6.315-6.24c1.915 0 3.308.73 4.337 1.676l1.698-1.656c-1.438-1.34-3.352-2.368-6.035-2.368-4.857 0-8.938 3.853-8.938 8.588s4.081 8.588 8.938 8.588c2.625 0 4.597-.838 6.147-2.411 1.588-1.549 2.083-3.726 2.083-5.484a7.7 7.7 0 0 0-.13-1.468zm60.41 1.822c-.468-1.237-1.913-3.517-4.857-3.517-2.916 0-5.345 2.241-5.345 5.53 0 3.097 2.404 5.528 5.625 5.528a5.66 5.66 0 0 0 4.727-2.45l-1.933-1.256c-.645.92-1.524 1.529-2.794 1.529-1.261 0-2.166-.564-2.746-1.675l7.585-3.06zm-7.733 1.84a3.07 3.07 0 0 1 2.961-3.223c.99 0 1.83.483 2.11 1.173zM110.17 39h2.493V22.75h-2.493zm-4.084-9.49h-.083c-.56-.647-1.628-1.232-2.982-1.232-2.84 0-5.436 2.431-5.436 5.548 0 3.099 2.596 5.51 5.436 5.51 1.354 0 2.422-.59 2.982-1.256h.083v.793c0 2.114-1.158 3.25-3.026 3.25-1.524 0-2.469-1.072-2.859-1.974l-2.168.882c.625 1.466 2.28 3.27 5.027 3.27 2.923 0 5.39-1.677 5.39-5.758v-9.928h-2.364zm-2.851 7.649c-1.719 0-3.157-1.402-3.157-3.333 0-1.948 1.438-3.37 3.157-3.37 1.693 0 3.028 1.422 3.028 3.37 0 1.93-1.335 3.333-3.028 3.333m32.506-14.409h-5.963V39h2.487v-6.157h3.476c2.762 0 5.47-1.949 5.47-5.047s-2.715-5.046-5.47-5.046m.065 7.833h-3.541V25.01h3.541c1.857 0 2.917 1.503 2.917 2.786 0 1.257-1.06 2.787-2.917 2.787m15.372-2.336c-1.797 0-3.665.774-4.433 2.488l2.206.902c.475-.902 1.349-1.194 2.272-1.194 1.29 0 2.598.755 2.618 2.09v.17c-.45-.253-1.413-.629-2.598-.629-2.377 0-4.798 1.276-4.798 3.657 0 2.177 1.946 3.58 4.135 3.58 1.673 0 2.596-.737 3.176-1.593h.085v1.256h2.402v-6.233c0-2.882-2.207-4.494-5.065-4.494m-.3 8.905c-.813 0-1.947-.393-1.947-1.376 0-1.258 1.414-1.74 2.637-1.74 1.095 0 1.608.235 2.273.546-.195 1.504-1.523 2.57-2.963 2.57m14.115-8.549-2.858 7.045h-.085l-2.955-7.045h-2.682l4.44 9.844-2.533 5.478h2.598l6.842-15.322zM142.578 39h2.493V22.75h-2.493z"/><defs><linearGradient id="a" x1="29.0662" x2="7.25605" y1="40.6775" y2="18.3081" gradientUnits="userSpaceOnUse"><stop stop-color="#00A0FF"/><stop offset="0.0066" stop-color="#00A1FF"/><stop offset="0.2601" stop-color="#00BEFF"/><stop offset="0.5122" stop-color="#00D2FF"/><stop offset="0.7604" stop-color="#00DFFF"/><stop offset="1" stop-color="#00E3FF"/></linearGradient><linearGradient id="b" x1="45.1124" x2="12.8499" y1="25.999" y2="25.999" gradientUnits="userSpaceOnUse"><stop stop-color="#FFE000"/><stop offset="0.4087" stop-color="#FFBD00"/><stop offset="0.7754" stop-color="orange"/><stop offset="1" stop-color="#FF9C00"/></linearGradient><linearGradient id="c" x1="33.1024" x2="3.52611" y1="23.0154" y2="-7.31927" gradientUnits="userSpaceOnUse"><stop stop-color="#FF3A44"/><stop offset="1" stop-color="#C31162"/></linearGradient><linearGradient id="d" x1="9.72949" x2="22.9366" y1="51.7709" y2="38.2253" gradientUnits="userSpaceOnUse"><stop stop-color="#32A071"/><stop offset="0.0685" stop-color="#2DA771"/><stop offset="0.4762" stop-color="#15CF74"/><stop offset="0.8009" stop-color="#06E775"/><stop offset="1" stop-color="#00F076"/></linearGradient></defs></svg>