<svg aria-hidden="true" style="position: absolute; width: 0; height: 0; overflow: hidden;" version="1.1" xmlns="http://www.w3.org/2000/svg" xmlns:xlink="http://www.w3.org/1999/xlink">
<defs>
<symbol id="burger" viewBox="0 0 32 32">
<path fill="#ff9c00" style="fill: var(--color1, #ff9c00)" d="M4.8 8c0-0.884 0.716-1.6 1.6-1.6h19.2c0.884 0 1.6 0.716 1.6 1.6s-0.716 1.6-1.6 1.6h-19.2c-0.884 0-1.6-0.716-1.6-1.6z"></path>
<path fill="#ff9c00" style="fill: var(--color1, #ff9c00)" d="M4.8 16c0-0.884 0.716-1.6 1.6-1.6h19.2c0.884 0 1.6 0.716 1.6 1.6s-0.716 1.6-1.6 1.6h-19.2c-0.884 0-1.6-0.716-1.6-1.6z"></path>
<path fill="#ff9c00" style="fill: var(--color1, #ff9c00)" d="M4.8 24c0-0.884 0.716-1.6 1.6-1.6h19.2c0.884 0 1.6 0.716 1.6 1.6s-0.716 1.6-1.6 1.6h-19.2c-0.884 0-1.6-0.716-1.6-1.6z"></path>
</symbol>
<symbol id="icon-close" viewBox="0 0 30 30">
<path fill="none" stroke-linejoin="round" stroke-linecap="round" stroke-miterlimit="4" stroke-width="1.0667" stroke="#000" d="M7 7.285l9 8.847M16 16.132l-9 8.846M16 16.132l9 8.846M16 16.132l9-8.847"></path>
</symbol>
</defs>
</svg>
