<svg aria-hidden="true" style="position: absolute; width: 0; height: 0; overflow: hidden;" version="1.1" xmlns="http://www.w3.org/2000/svg" xmlns:xlink="http://www.w3.org/1999/xlink">
<defs>
<symbol id="burger" viewBox="0 0 32 32">
<path fill="#ff9c00" style="fill: var(--color1, #ff9c00)" d="M4.8 8c0-0.884 0.716-1.6 1.6-1.6h19.2c0.884 0 1.6 0.716 1.6 1.6s-0.716 1.6-1.6 1.6h-19.2c-0.884 0-1.6-0.716-1.6-1.6z"></path>
<path fill="#ff9c00" style="fill: var(--color1, #ff9c00)" d="M4.8 16c0-0.884 0.716-1.6 1.6-1.6h19.2c0.884 0 1.6 0.716 1.6 1.6s-0.716 1.6-1.6 1.6h-19.2c-0.884 0-1.6-0.716-1.6-1.6z"></path>
<path fill="#ff9c00" style="fill: var(--color1, #ff9c00)" d="M4.8 24c0-0.884 0.716-1.6 1.6-1.6h19.2c0.884 0 1.6 0.716 1.6 1.6s-0.716 1.6-1.6 1.6h-19.2c-0.884 0-1.6-0.716-1.6-1.6z"></path>
</symbol>
<symbol id="icon-close" viewBox="0 0 30 30">
<path fill="none" stroke-linejoin="round" stroke-linecap="round" stroke-miterlimit="4" stroke-width="1.0667" stroke="#000" d="M7 7.285l9 8.847M16 16.132l-9 8.846M16 16.132l9 8.846M16 16.132l9-8.847"></path>
</symbol>

<symbol id="icon-gio" viewBox="0 0 50 8">
<path d="M26.315 17.015c0 3.474-1.067 6.256-3.168 8.33-2.416 2.46-5.563 3.697-9.419 3.697-3.685 0-6.832-1.258-9.413-3.739-2.587-2.517-3.877-5.606-3.877-9.303s1.291-6.786 3.877-9.282c2.581-2.501 5.728-3.76 9.413-3.76 1.835 0 3.584 0.369 5.253 1.056 1.664 0.692 3.019 1.628 4 2.782l-2.229 2.194c-1.712-1.971-4.043-2.943-7.024-2.943-2.688 0-5.019 0.915-6.997 2.761-1.957 1.851-2.939 4.248-2.939 7.192s0.981 5.361 2.939 7.212c1.979 1.825 4.309 2.761 6.997 2.761 2.853 0 5.253-0.936 7.147-2.782 1.248-1.222 1.957-2.907 2.144-5.060h-9.291v-3.006h12.395c0.149 0.65 0.192 1.279 0.192 1.888z"></path>
<path d="M45.979 6.594h-11.643v7.904h10.496v3.006h-10.496v7.904h11.643v3.063h-14.939v-24.939h14.939v3.063z"></path>
<path d="M59.856 28.47h-3.296v-21.876h-7.141v-3.063h17.584v3.063h-7.147v21.876z"></path>
<path d="M79.728 28.47v-24.939h3.291v24.939h-3.291z"></path>
<path d="M97.606 28.47h-3.269v-21.876h-7.168v-3.063h17.605v3.063h-7.168v21.876z"></path>
<path d="M138.063 25.262c-2.523 2.522-5.648 3.78-9.376 3.78-3.749 0-6.875-1.258-9.397-3.78-2.517-2.517-3.771-5.606-3.771-9.261s1.253-6.744 3.771-9.261c2.523-2.522 5.648-3.78 9.397-3.78 3.707 0 6.832 1.258 9.355 3.801 2.539 2.538 3.792 5.606 3.792 9.24 0 3.656-1.253 6.744-3.771 9.261zM121.727 23.172c1.899 1.867 4.208 2.803 6.96 2.803 2.731 0 5.061-0.936 6.939-2.803 1.893-1.867 2.853-4.264 2.853-7.171s-0.96-5.304-2.853-7.171c-1.877-1.867-4.208-2.803-6.939-2.803-2.752 0-5.061 0.936-6.96 2.803-1.893 1.867-2.853 4.264-2.853 7.171s0.96 5.304 2.853 7.171z"></path>
<path d="M146.46 28.47v-24.939h4l12.437 19.396h0.144l-0.144-4.794v-14.602h3.291v24.939h-3.435l-13.024-20.353h-0.144l0.144 4.815v15.538h-3.269z"></path>
</symbol>

<symbol id="icon-gp" viewBox="0 0 159 32">
<path d="M51.265 8.735c-4.357 0-7.917 3.233-7.917 7.694 0 4.425 3.559 7.691 7.917 7.691 4.366 0 7.926-3.267 7.926-7.691 0-4.461-3.559-7.694-7.926-7.694zM51.265 21.091c-2.391 0-4.448-1.924-4.448-4.662 0-2.774 2.057-4.664 4.448-4.664s4.457 1.89 4.457 4.664c0 2.738-2.066 4.662-4.457 4.662zM33.992 8.735c-4.366 0-7.917 3.233-7.917 7.694 0 4.425 3.55 7.691 7.917 7.691 4.364 0 7.917-3.267 7.917-7.691 0-4.461-3.553-7.694-7.917-7.694zM33.992 21.091c-2.393 0-4.457-1.924-4.457-4.662 0-2.774 2.064-4.664 4.457-4.664 2.391 0 4.448 1.89 4.448 4.664 0 2.738-2.057 4.662-4.448 4.662zM13.437 11.093v3.269h8.007c-0.234 1.827-0.86 3.17-1.82 4.106-1.169 1.13-2.989 2.385-6.187 2.385-4.928 0-8.786-3.877-8.786-8.682s3.859-8.682 8.786-8.682c2.664 0 4.603 1.015 6.034 2.331l2.363-2.304c-2.001-1.863-4.663-3.294-8.397-3.294-6.757 0-12.436 5.361-12.436 11.949s5.679 11.949 12.436 11.949c3.652 0 6.395-1.167 8.552-3.355 2.21-2.155 2.899-5.184 2.899-7.63 0-0.76-0.065-1.458-0.181-2.042h-11.27zM97.486 13.628c-0.652-1.72-2.662-4.893-6.757-4.893-4.058 0-7.437 3.118-7.437 7.694 0 4.309 3.344 7.691 7.826 7.691 3.624 0 5.716-2.155 6.576-3.409l-2.69-1.748c-0.897 1.28-2.119 2.127-3.886 2.127-1.755 0-3.015-0.785-3.822-2.331l10.553-4.257-0.364-0.875zM86.727 16.189c-0.090-2.966 2.363-4.486 4.121-4.486 1.377 0 2.546 0.671 2.936 1.632l-7.056 2.853zM78.149 23.652h3.469v-22.609h-3.469v22.609zM72.468 10.449h-0.116c-0.779-0.9-2.265-1.714-4.148-1.714-3.951 0-7.564 3.382-7.564 7.719 0 4.311 3.613 7.667 7.564 7.667 1.883 0 3.369-0.821 4.148-1.748h0.116v1.103c0 2.941-1.612 4.522-4.211 4.522-2.119 0-3.434-1.492-3.977-2.747l-3.017 1.228c0.87 2.039 3.172 4.549 6.994 4.549 4.067 0 7.499-2.333 7.499-8.010v-13.814h-3.288v1.246zM68.5 21.091c-2.391 0-4.392-1.951-4.392-4.637 0-2.711 2.001-4.689 4.392-4.689 2.356 0 4.213 1.978 4.213 4.689 0 2.686-1.857 4.637-4.213 4.637zM113.727 1.044h-8.297v22.609h3.46v-8.566h4.837c3.842 0 7.61-2.711 7.61-7.022 0-4.309-3.777-7.020-7.61-7.020zM113.818 11.941h-4.928v-7.753h4.928c2.583 0 4.058 2.091 4.058 3.875 0 1.75-1.475 3.877-4.058 3.877zM135.204 8.692c-2.5 0-5.099 1.076-6.168 3.461l3.070 1.255c0.661-1.255 1.876-1.662 3.161-1.662 1.795 0 3.615 1.051 3.643 2.907v0.238c-0.626-0.353-1.966-0.875-3.615-0.875-3.307 0-6.676 1.775-6.676 5.087 0 3.030 2.708 4.981 5.753 4.981 2.328 0 3.613-1.024 4.42-2.216h0.118v1.748h3.341v-8.673c0-4.008-3.071-6.251-7.047-6.251zM134.787 21.082c-1.132 0-2.708-0.547-2.708-1.915 0-1.75 1.966-2.421 3.668-2.421 1.523 0 2.238 0.328 3.163 0.76-0.271 2.093-2.119 3.577-4.123 3.577zM154.425 9.187l-3.976 9.801h-0.118l-4.111-9.801h-3.731l6.177 13.696-3.524 7.621h3.615l9.519-21.318h-3.85zM123.239 23.652h3.469v-22.609h-3.469v22.609z"></path>
</symbol>

<symbol id="icon-play" viewBox="0 0 159 32">
        <path
          d="M171.407 50H6.59259C2.96832 50 0 47.1859 0 43.75V6.25C0 2.81406 2.96832 0 6.59259 0H171.407C175.032 0 178 2.81406 178 6.25V43.75C178 47.1859 175.032 50 171.407 50Z"
          fill="white" />
        <path
          d="M171.407 1.00156C174.46 1.00156 176.944 3.35625 176.944 6.25V43.75C176.944 46.6437 174.46 48.9984 171.407 48.9984H6.59259C3.54022 48.9984 1.05646 46.6437 1.05646 43.75V6.25C1.05646 3.35625 3.54022 1.00156 6.59259 1.00156H171.407ZM171.407 0H6.59259C2.96832 0 0 2.81406 0 6.25V43.75C0 47.1859 2.96832 50 6.59259 50H171.407C175.032 50 178 47.1859 178 43.75V6.25C178 2.81406 175.032 0 171.407 0Z"
          fill="#A6A6A6" />
        <path
          d="M13.7588 9.42348C13.3714 9.80786 13.1473 10.4063 13.1473 11.1813V38.825C13.1473 39.6 13.3714 40.1985 13.7588 40.5829L13.8543 40.6672L30.1941 25.1829V24.8172L13.8543 9.33286L13.7588 9.42348Z"
          fill="url(#paint0_linear_145_513)" />
        <path
          d="M35.6346 30.3469L30.194 25.1829V24.8172L35.6412 19.6532L35.7631 19.7204L42.214 23.2C44.055 24.1875 44.055 25.8125 42.214 26.8063L35.7631 30.2797L35.6346 30.3469V30.3469Z"
          fill="url(#paint1_linear_145_513)" />
        <path
          d="M35.7632 30.2797L30.1941 25L13.7587 40.5828C14.3702 41.1922 15.3673 41.2657 16.5013 40.6563L35.7632 30.2797"
          fill="url(#paint2_linear_145_513)" />
        <path
          d="M35.7632 19.7203L16.5013 9.34376C15.3673 8.74063 14.3702 8.81407 13.7587 9.42344L30.1941 25L35.7632 19.7203Z"
          fill="url(#paint3_linear_145_513)" />
</symbol>
</defs>
</svg>
